<?xml version="1.0" standalone="no"?>
<!DOCTYPE svg PUBLIC "-//W3C//DTD SVG 1.1//EN" "http://www.w3.org/Graphics/SVG/1.1/DTD/svg11.dtd">
<svg width="200px" height="71px" version="1.1" xmlns="http://www.w3.org/2000/svg" xmlns:xlink="http://www.w3.org/1999/xlink" xml:space="preserve" style="fill-rule:evenodd;clip-rule:evenodd;stroke-linejoin:round;stroke-miterlimit:1.41421;">
    <path d="M181.265,37.439C181.265,21.2553 170.894,9.09837 164.312,3.0067L163.045,4.74297C167.438,11.9834 173.848,24.6326 173.848,36.8635C173.848,47.6317 167.615,58.735 162.574,65.9487L164.117,68.0344C171.442,61.6937 181.265,50.7117 181.265,37.439Z" style="fill:rgb(121,158,166);fill-rule:nonzero;"/>
    <path d="M199.953,37.439C199.953,21.2553 189.581,9.09837 182.997,3.0067L181.731,4.74297C186.125,11.9834 192.532,24.6326 192.532,36.8635C192.532,47.6317 186.301,58.735 181.261,65.9487L182.806,68.0344C190.129,61.6937 199.953,50.7117 199.953,37.439Z" style="fill:rgb(121,158,166);fill-rule:nonzero;"/>
    <path d="M14.963,47.4834L14.963,6.59243C5.90728,13.0221 0,23.5841 0,35.5236C0,47.4633 5.90728,58.025 14.963,64.4549L14.963,47.4834Z" style="fill:rgb(239,142,27);fill-rule:nonzero;"/>
    <path d="M78.6921,2.9954C82.4894,2.9954 85.6604,3.26364 88.1953,3.80378C90.7226,4.34193 93.0013,5.3112 95.0332,6.69797C97.3079,8.27103 99.0906,10.2573 100.381,12.6444C101.658,15.03 102.29,18.4545 102.29,22.1245C102.29,27.0922 101.161,31.6914 98.8894,35.037C96.6107,38.3842 93.4871,40.3538 89.4996,42.0466L105.002,62.4117L121.912,35.5236C121.912,35.5236 109.274,14.747 104.848,8.4959C98.6477,3.22741 90.6122,0.0473641 81.8327,0.0473641C76.783,0.0473641 71.98,1.09957 67.6305,2.9954L78.6921,2.9954Z" style="fill:rgb(239,142,27);fill-rule:nonzero;"/>
    <path d="M151.126,8.46914L134.446,35.5236L151.461,62.2776C158.939,55.7734 163.665,46.1969 163.665,35.5173C163.665,24.6791 158.797,14.9765 151.126,8.46914Z" style="fill:rgb(121,158,166);fill-rule:nonzero;"/>
    <path d="M128.133,27.7741L142.26,2.95584C137.93,1.08079 133.154,0.0408822 128.133,0.0408822C123.32,0.0408822 118.73,0.997021 114.543,2.72881L128.133,27.7741Z" style="fill:rgb(239,142,27);fill-rule:nonzero;"/>
    <path d="M93.4627,22.5237C93.4677,20.5558 93.1591,18.8087 92.5258,17.2807C91.8951,15.7471 90.8415,14.4538 89.3863,13.4084C88.1673,12.5114 86.7286,11.8802 85.0652,11.5186C83.3998,11.1626 81.4397,10.9752 79.1825,10.9659L69.3034,10.9279L69.3034,36.8897L77.6834,36.9208C80.3366,36.9313 82.65,36.6931 84.635,36.1807C86.6062,35.6808 88.2961,34.7465 89.6889,33.3639C90.9648,32.0755 91.9071,30.605 92.5204,28.9175C93.1356,27.2439 93.4502,25.1199 93.4627,22.5237Z" style="fill:rgb(239,142,27);fill-rule:nonzero;"/>
    <path d="M128.133,43.2347L112.818,67.5378C117.456,69.753 122.649,70.9935 128.133,70.9935C133.754,70.9935 139.07,69.6902 143.795,67.3697L128.133,43.2347Z" style="fill:rgb(239,142,27);fill-rule:nonzero;"/>
    <path d="M81.224,44.7184L69.4397,44.7184L69.4397,68.7817C73.2984,70.2157 77.4737,71 81.8327,71C87.6524,71 93.1451,69.6029 97.993,67.1264L81.224,44.7184Z" style="fill:rgb(239,142,27);fill-rule:nonzero;"/>
    <path d="M61.607,6.35277C60.5928,7.05546 59.616,7.809 58.6821,8.61058C52.4639,3.27328 44.3754,0.0473641 35.5319,0.0473641C30.3953,0.0473641 25.5136,1.13613 21.1048,3.09428L32.7436,3.13683C36.5393,3.15428 39.7087,3.43167 42.2422,3.98361C44.7687,4.53373 47.0457,5.50898 49.072,6.90471C51.3398,8.48227 53.1119,10.4828 54.3885,12.8729C55.6644,15.2585 56.2881,18.2903 56.2752,21.9635C56.2537,26.9248 55.0801,31.0889 53.1266,34.621C52.1094,36.4601 50.8315,38.2516 49.2459,39.5685C47.7521,40.8125 45.9318,41.9241 42.8255,43.1413C39.4866,44.4564 35.1153,44.6193 35.1153,44.6193L23.3337,44.5766L23.3337,68.854C27.1379,70.2426 31.2463,71 35.5319,71C44.3754,71 52.4639,67.7741 58.6821,62.4366C59.616,63.2384 60.5928,63.9917 61.607,64.6943L61.607,6.35277Z" style="fill:rgb(239,142,27);fill-rule:nonzero;"/>
    <path d="M43.8422,33.3795C45.1184,32.0911 46.0606,30.6206 46.6738,28.9332C47.2892,27.2595 47.6038,25.1355 47.6165,22.5393C47.6213,20.5714 47.3129,18.8245 46.6795,17.2963C46.0486,15.7626 44.9951,14.4694 43.5401,13.424C42.3209,12.527 40.8824,11.8958 39.2186,11.5343C37.5536,11.1782 35.5933,10.9909 33.336,10.9816L23.3631,10.9435L23.3631,36.9054L31.8372,36.9365C34.4902,36.9469 36.804,36.7088 38.7888,36.1964C40.7599,35.6964 42.4499,34.7621 43.8422,33.3795Z" style="fill:rgb(239,142,27);fill-rule:nonzero;"/>
</svg>
