<svg id="Layer_1" data-name="Layer 1" xmlns="http://www.w3.org/2000/svg" viewBox="0 0 1167.12 355.42"><defs><style>.cls-1{fill:#ff9500;}.cls-2{fill:#0089bd;}.cls-3{fill:#bf7000;}</style></defs><title>PRX_Marks</title><path class="cls-1" d="M264.09,177.94,175.68,89.52,92.37,6.21a7.21,7.21,0,0,0-10.2,0L4,84.42a7.21,7.21,0,0,0,0,10.2l83.31,83.31.18.18-.18.18L4,261.6a7.21,7.21,0,0,0,0,10.2L82.17,350a7.21,7.21,0,0,0,10.2,0l83.31-83.31,88.41-88.41-.18-.18Z"/><path class="cls-2" d="M175.86,266.52,87.45,178.11,175.86,89.7,259.17,6.39a7.21,7.21,0,0,1,10.2,0L347.59,84.6a7.21,7.21,0,0,1,0,10.2l-83.31,83.31,83.31,83.31a7.21,7.21,0,0,1,0,10.2l-78.21,78.21a7.21,7.21,0,0,1-10.2,0Z"/><path class="cls-3" d="M87.44,178.11l88.42,88.41-24.57,24.56s1.07-46.18-63.85-113Z"/><path class="cls-2" d="M1085.89,178.11,1163,49.63a6.12,6.12,0,0,0-5.25-9.27h-95.92a6.12,6.12,0,0,0-5.25,3l-25.77,42.94L1005,43.33a6.12,6.12,0,0,0-5.25-3H903.85a6.12,6.12,0,0,0-5.25,9.27l77.09,128.48h0L907.5,291.76l-31.68-65.37a86.51,86.51,0,0,0,34.69-33.7q12.21-21.48,12.22-52.23,0-48.86-30-74.49T811.58,40.36H685.73a6.58,6.58,0,0,0-6.58,6.58V95.31A79.78,79.78,0,0,0,657.57,66q-30-25.62-81.19-25.62H450.52a6.58,6.58,0,0,0-6.58,6.58V309.28a6.58,6.58,0,0,0,6.58,6.58h80.25a6.58,6.58,0,0,0,6.58-6.58v-68.7h39q51.23,0,81.19-25.62a79.74,79.74,0,0,0,21.58-29.33V309.28a6.58,6.58,0,0,0,6.58,6.58H764.4a6.58,6.58,0,0,0,6.58-6.58v-68.7h17.74L822.62,311a8.68,8.68,0,0,0,7.82,4.91H999.78a6.12,6.12,0,0,0,5.25-3l25.77-42.94,25.77,42.94a6.12,6.12,0,0,0,5.25,3h95.92a6.12,6.12,0,0,0,5.25-9.27Zm-528.44-7.29h-20.1v-60.7h20.1q35.86,0,35.87,30.35T557.45,170.82Zm234.42,0H771v-60.7h20.89q35.86,0,35.87,30.35T791.87,170.82Z"/></svg>